<?xml version="1.0" encoding="utf-8"?>
<!-- Generator: Adobe Illustrator 27.0.0, SVG Export Plug-In . SVG Version: 6.00 Build 0)  -->
<svg version="1.1" id="Layer_1" xmlns="http://www.w3.org/2000/svg" xmlns:xlink="http://www.w3.org/1999/xlink" x="0px" y="0px"
	 viewBox="0 0 44.9 44.9" style="enable-background:new 0 0 44.9 44.9;" xml:space="preserve">
<style type="text/css">
	.st0{fill:#0051E6;}
	.st1{fill:#FFFFFF;}
</style>
<g>
	<circle class="st0" cx="22.4" cy="22.4" r="22.4"/>
	<g>
		<path class="st1" d="M21,17.6c1-0.5,1.7-1.3,2-2.4h12c0.5,0,0.9-0.4,0.9-0.9c0-0.5-0.4-0.9-0.9-0.9h-12c-0.1-0.2-0.1-0.4-0.2-0.6
			c-0.4-0.9-1.2-1.6-2.1-1.9c-1-0.3-2-0.2-2.9,0.3c-0.9,0.5-1.5,1.3-1.8,2.3H9.8c-0.5,0-0.9,0.4-0.9,0.9c0,0.5,0.4,0.9,0.9,0.9h6.2
			c0.3,1.2,1.1,2.1,2.2,2.5C19.2,18.1,20.2,18,21,17.6L21,17.6z M18.9,16.1L18.9,16.1c-0.6-0.2-1-0.7-1.2-1.3
			c-0.1-0.6,0-1.2,0.5-1.7c0.4-0.5,1-0.7,1.7-0.6c0.6,0.1,1.1,0.5,1.4,1.1c0.1,0.2,0.2,0.5,0.2,0.8c0,0.4-0.1,0.7-0.3,1
			c-0.2,0.3-0.5,0.5-0.8,0.7C19.9,16.2,19.4,16.3,18.9,16.1L18.9,16.1z"/>
		<path class="st1" d="M21,33.8c1-0.5,1.7-1.3,2-2.4h12c0.5,0,0.9-0.4,0.9-0.9c0-0.5-0.4-0.9-0.9-0.9h-12c-0.1-0.2-0.1-0.4-0.2-0.6
			c-0.4-0.9-1.2-1.6-2.1-1.9c-1-0.3-2-0.2-2.9,0.3c-0.9,0.5-1.5,1.3-1.8,2.3H9.8c-0.5,0-0.9,0.4-0.9,0.9c0,0.5,0.4,0.9,0.9,0.9h6.2
			c0.3,1.2,1.1,2.1,2.2,2.5C19.2,34.3,20.2,34.2,21,33.8L21,33.8z M18.9,32.3L18.9,32.3c-0.6-0.2-1-0.7-1.2-1.3
			c-0.1-0.6,0-1.2,0.5-1.7c0.4-0.5,1-0.7,1.7-0.6c0.6,0.1,1.1,0.5,1.4,1.1c0.1,0.2,0.2,0.5,0.2,0.8c0,0.4-0.1,0.7-0.3,1
			c-0.2,0.3-0.5,0.5-0.8,0.7C19.9,32.5,19.4,32.5,18.9,32.3L18.9,32.3z"/>
		<path class="st1" d="M28.6,23.7c0-0.1,0.1-0.3,0.1-0.4l6.4,0c0.5,0,0.9-0.4,0.9-0.9c0-0.5-0.4-0.9-0.9-0.9h-6.4
			c-0.3-1-1-1.9-1.9-2.4c-1-0.5-2.1-0.5-3.1,0c-0.9,0.4-1.6,1.1-1.9,2c0,0.1-0.1,0.3-0.1,0.4l-11.9,0c-0.5,0-0.9,0.4-0.9,0.9
			c0,0.5,0.4,0.9,0.9,0.9h11.9c0.1,0.2,0.1,0.4,0.2,0.6c0.4,0.9,1.1,1.6,2,1.9c0.9,0.3,1.9,0.3,2.8-0.1
			C27.6,25.4,28.2,24.6,28.6,23.7L28.6,23.7z M24.5,24.2c-0.5-0.2-0.8-0.5-1-1c-0.2-0.5-0.2-1,0-1.4c0.2-0.5,0.5-0.8,1-1
			c0.6-0.3,1.2-0.2,1.8,0.1c0.5,0.3,0.9,0.9,0.9,1.6c0,0.2,0,0.4-0.1,0.7c-0.2,0.5-0.5,0.8-1,1C25.5,24.3,25,24.4,24.5,24.2
			L24.5,24.2z"/>
	</g>
</g>
</svg>
