<?xml version="1.0" encoding="utf-8"?>
<!-- Generator: Adobe Illustrator 27.0.1, SVG Export Plug-In . SVG Version: 6.00 Build 0)  -->
<svg version="1.1" id="Layer_1" xmlns="http://www.w3.org/2000/svg" xmlns:xlink="http://www.w3.org/1999/xlink" x="0px" y="0px"
	 viewBox="0 0 44.8 44.8" style="enable-background:new 0 0 44.8 44.8;" xml:space="preserve">
<style type="text/css">
	.st0{fill:#0051E6;}
	.st1{fill:#FFFFFF;}
	.st2{fill:#FFFFFF;stroke:#FFFFFF;stroke-miterlimit:10;}
</style>
<circle class="st0" cx="22.4" cy="22.4" r="22.4"/>
<g>
	<g>
		<path class="st1" d="M20.6,30h1.3l-2.9,7H18L15,30h1.4l2.1,5.4L20.6,30z"/>
		<path class="st1" d="M27.6,37l-1.7-2.4h-1.5V37h-1.2v-7h3.1c1.6,0,2.6,0.8,2.6,2.2c0,1.2-0.7,1.9-1.7,2.1l1.9,2.6H27.6z
			 M26.2,31.2h-1.8v2.3h1.8c0.9,0,1.4-0.5,1.4-1.2C27.6,31.6,27.1,31.2,26.2,31.2z"/>
	</g>
	<g>
		<path class="st2" d="M35.9,15.1h-1c0,0,0,0-0.1,0c-0.1-0.8-0.5-1.5-1-2.1c-0.5-0.6-1.2-1-1.9-1.3l-2.6-1.5
			c-1.2-0.7-2.5-1.1-3.9-1.1h-6.8c-1.4,0-2.7,0.4-3.9,1.1c0,0,0,0,0,0l-2.1,1.4c-0.9,0.2-1.6,0.6-2.2,1.2c-0.6,0.6-1,1.4-1.2,2.3
			c0,0,0,0-0.1,0h-1c-0.4,0-0.7,0.2-1,0.4c-0.3,0.3-0.4,0.6-0.4,1v3.8c0,0.4,0.2,0.7,0.4,1c0.3,0.3,0.6,0.4,1,0.4h1c0,0,0,0,0.1,0
			c0.2,1,0.7,1.9,1.5,2.6c0.8,0.7,1.8,1,2.8,1h5.9c0.2,0,0.4-0.1,0.5-0.2c0.2-0.1,0.3-0.3,0.3-0.5l0.3-0.9c0.1-0.2,0.3-0.3,0.5-0.3
			h2c0.2,0,0.4,0.1,0.5,0.3l0.3,0.9h0c0.1,0.2,0.2,0.3,0.3,0.5c0.2,0.1,0.4,0.2,0.5,0.2h5.9c1,0,2-0.4,2.8-1
			c0.8-0.7,1.3-1.6,1.5-2.6c0,0,0,0,0.1,0h1c0.4,0,0.7-0.2,1-0.4c0.3-0.3,0.4-0.6,0.4-1v-3.8c0-0.4-0.2-0.7-0.4-1
			C36.6,15.2,36.3,15.1,35.9,15.1L35.9,15.1z M34,21c0,0.9-0.4,1.7-1,2.4c-0.6,0.6-1.5,1-2.4,1h-5.5c-0.2,0-0.4-0.1-0.5-0.3
			l-0.4-1.2c-0.1-0.2-0.3-0.3-0.5-0.3h-3.3c-0.2,0-0.4,0.1-0.5,0.3L19.5,24c-0.1,0.2-0.3,0.3-0.5,0.3h-5.5c-0.9,0-1.7-0.4-2.4-1
			c-0.6-0.6-1-1.5-1-2.4v-5.2c0-0.9,0.4-1.7,1-2.4c0.6-0.6,1.5-1,2.4-1h17.1c0.9,0,1.7,0.4,2.4,1c0.6,0.6,1,1.5,1,2.4L34,21z"/>
	</g>
</g>
</svg>
