<?xml version="1.0" encoding="utf-8"?>
<!-- Generator: Adobe Illustrator 27.0.1, SVG Export Plug-In . SVG Version: 6.00 Build 0)  -->
<svg version="1.1" id="Layer_1" xmlns="http://www.w3.org/2000/svg" xmlns:xlink="http://www.w3.org/1999/xlink" x="0px" y="0px"
	 viewBox="0 0 19.3 19.3" style="enable-background:new 0 0 19.3 19.3;" xml:space="preserve">
<style type="text/css">
	.st0{fill:#FFFFFF;}
</style>
<path class="st0" d="M19.3,19.3c-3.2-3.2-5.8-6.1-7.9-8.8c0.1-0.2,0.1-0.3,0.1-0.5c1.7-0.2,3.7-0.3,5.8-0.3c-2.2,0-4.1-0.1-5.8-0.3
	c0-0.2-0.1-0.4-0.1-0.5c2.1-2.7,4.7-5.7,7.9-8.8c-3.2,3.2-6.1,5.8-8.8,7.9c-0.2-0.1-0.3-0.1-0.5-0.1C9.7,6,9.6,4.1,9.6,1.9
	c0,2.2-0.1,4.1-0.3,5.8C9.2,7.8,9,7.8,8.8,7.9C6.1,5.8,3.2,3.2,0,0c3.2,3.2,5.8,6.1,7.9,8.8C7.8,9,7.8,9.2,7.7,9.3
	C6,9.5,4.1,9.6,1.9,9.6c2.2,0,4.1,0.1,5.8,0.3c0,0.2,0.1,0.4,0.1,0.5c-2.1,2.7-4.7,5.7-7.9,8.8c3.2-3.2,6.1-5.8,8.8-7.9
	c0.2,0.1,0.3,0.1,0.5,0.1c0.2,1.7,0.3,3.7,0.3,5.8c0-2.2,0.1-4.1,0.3-5.8c0.2,0,0.4-0.1,0.5-0.1C13.1,13.5,16.1,16.1,19.3,19.3z"/>
</svg>
